<?xml version="1.0" encoding="utf-8"?><svg viewBox="0 0 1706.667 1701.333" xmlns="http://www.w3.org/2000/svg" xmlns:xlink="http://www.w3.org/1999/xlink"><style>:root>svg{display:none}:root>svg:target{display:block}</style><svg viewBox="0 0 448 512" id="bars-solid" xmlns="http://www.w3.org/2000/svg"><!--! Font Awesome Pro 6.1.1 by @fontawesome - https://fontawesome.com License - https://fontawesome.com/license (Commercial License) Copyright 2022 Fonticons, Inc.--><path d="M0 96c0-17.67 14.33-32 32-32h384c17.7 0 32 14.33 32 32 0 17.7-14.3 32-32 32H32c-17.67 0-32-14.3-32-32zm0 160c0-17.7 14.33-32 32-32h384c17.7 0 32 14.3 32 32s-14.3 32-32 32H32c-17.67 0-32-14.3-32-32zm416 192H32c-17.67 0-32-14.3-32-32s14.33-32 32-32h384c17.7 0 32 14.3 32 32s-14.3 32-32 32z"/></svg><svg viewBox="0 0 384 512" id="building-regular" xmlns="http://www.w3.org/2000/svg"><!--! Font Awesome Pro 6.1.1 by @fontawesome - https://fontawesome.com License - https://fontawesome.com/license (Commercial License) Copyright 2022 Fonticons, Inc.--><path d="M88 104c0-8.84 7.16-16 16-16h48c8.8 0 16 7.16 16 16v48c0 8.8-7.2 16-16 16h-48c-8.84 0-16-7.2-16-16v-48zm192-16c8.8 0 16 7.16 16 16v48c0 8.8-7.2 16-16 16h-48c-8.8 0-16-7.2-16-16v-48c0-8.84 7.2-16 16-16h48zM88 232c0-8.8 7.16-16 16-16h48c8.8 0 16 7.2 16 16v48c0 8.8-7.2 16-16 16h-48c-8.84 0-16-7.2-16-16v-48zm192-16c8.8 0 16 7.2 16 16v48c0 8.8-7.2 16-16 16h-48c-8.8 0-16-7.2-16-16v-48c0-8.8 7.2-16 16-16h48zM0 64C0 28.65 28.65 0 64 0h256c35.3 0 64 28.65 64 64v384c0 35.3-28.7 64-64 64H64c-35.35 0-64-28.7-64-64V64zm48 0v384c0 8.8 7.16 16 16 16h80v-64c0-26.5 21.5-48 48-48s48 21.5 48 48v64h80c8.8 0 16-7.2 16-16V64c0-8.84-7.2-16-16-16H64c-8.84 0-16 7.16-16 16z"/></svg><svg viewBox="0 0 640 512" id="car-side-solid" xmlns="http://www.w3.org/2000/svg"><!--! Font Awesome Pro 6.1.1 by @fontawesome - https://fontawesome.com License - https://fontawesome.com/license (Commercial License) Copyright 2022 Fonticons, Inc.--><path d="M640 320v48c0 17.7-14.3 32-32 32h-33.3c-7.6 45.4-47.1 80-94.7 80s-87.1-34.6-94.7-80H254.7c-7.6 45.4-47.1 80-94.7 80s-87.06-34.6-94.67-80H32c-17.67 0-32-14.3-32-32V256c0-27.1 16.81-50.2 40.56-59.6L82.2 92.35C96.78 55.9 132.1 32 171.3 32h181.9c29.2 0 55.9 13.26 75 36.03L528.2 193c63 7.1 111.8 61.8 111.8 126.1v.9zM171.3 96c-13.1 0-24.8 7.1-29.7 20.1L111.3 192H224V96h-52.7zM272 192h173.4l-67.2-84c-6-7.6-16.1-12-25-12H272v96zm253.3 208c1.7-5.9 2.7-10.4 2.7-16 0-26.5-21.5-48-48-48s-48 21.5-48 48c0 5.6.1 10.1 2.7 16 6.6 18.6 24.4 32 45.3 32s38.7-13.4 45.3-32zm-320 0c1.7-5.9 2.7-10.4 2.7-16 0-26.5-21.5-48-48-48s-48 21.5-48 48c0 5.6.1 10.1 2.7 16 6.6 18.6 24.4 32 45.3 32s38.7-13.4 45.3-32z"/></svg><svg viewBox="0 0 448 512" id="check-solid" xmlns="http://www.w3.org/2000/svg"><!--! Font Awesome Pro 6.1.1 by @fontawesome - https://fontawesome.com License - https://fontawesome.com/license (Commercial License) Copyright 2022 Fonticons, Inc.--><path d="M438.6 105.4c12.5 12.5 12.5 32.7 0 45.2l-256 256c-12.5 12.5-32.7 12.5-45.2 0L9.372 278.6c-12.496-12.5-12.496-32.7 0-45.2 12.498-12.5 32.758-12.5 45.258 0L159.1 338.7l234.3-233.3c12.5-12.52 32.7-12.52 45.2 0z"/></svg><svg viewBox="0 0 512 512" id="envelope-solid" xmlns="http://www.w3.org/2000/svg"><!--! Font Awesome Pro 6.1.1 by @fontawesome - https://fontawesome.com License - https://fontawesome.com/license (Commercial License) Copyright 2022 Fonticons, Inc.--><path d="M464 64c26.5 0 48 21.49 48 48 0 15.1-7.1 29.3-19.2 38.4L275.2 313.6a32.1 32.1 0 01-38.4 0L19.2 150.4C7.113 141.3 0 127.1 0 112c0-26.51 21.49-48 48-48h416zM217.6 339.2a63.9 63.9 0 0076.8 0L512 176v208c0 35.3-28.7 64-64 64H64c-35.35 0-64-28.7-64-64V176l217.6 163.2z"/></svg><svg viewBox="0 0 576 512" id="file-signature-solid" xmlns="http://www.w3.org/2000/svg"><!--! Font Awesome Pro 6.1.1 by @fontawesome - https://fontawesome.com License - https://fontawesome.com/license (Commercial License) Copyright 2022 Fonticons, Inc.--><path d="M292.7 342.3c-3 3-4.7 7.1-4.7 11.4V416h62.34c4.264 0 8.35-1.703 11.35-4.727l156.9-158-67.88-67.88L292.7 342.3zm275.8-174.9l-31.9-31.9c-9.875-10-26-10-36 0l-27.25 27.25 67.88 67.88 27.25-27.25c10.02-9.98 10.02-26.08.02-35.98zM256 0v128h128L256 0zm0 448c-16.07-.285-30.62-9.359-37.88-23.88-2.875-5.875-8-6.5-10.12-6.5s-7.25.625-10 6.125l-7.749 15.38C187.6 444.6 181.1 448 176 448h-1.1c-6.5-.5-12-4.75-14-11L144 386.6l-10.6 31.9C127.5 436.1 111 448 92.45 448H80c-8.87 0-16-7.1-16-16s7.13-16 16-16h12.4c4.875 0 9.102-3.125 10.6-7.625l18.25-54.63C124.5 343.9 133.6 337.3 144 337.3s19.5 6.625 22.75 16.5l13.88 41.63c19.75-16.25 54.13-9.75 66 14.12 1.87 3.65 5.57 6.05 9.37 6.35V347a32.02 32.02 0 019.451-22.71L384 206.5V160H256c-17.67 0-32-14.33-32-32V0H48C21.49 0 0 21.49 0 48v416c0 26.5 21.49 48 48 48h288c26.51 0 48-21.49 48-48v-16H256z"/></svg><svg viewBox="0 0 640 512" id="handshake-solid" xmlns="http://www.w3.org/2000/svg"><!--! Font Awesome Pro 6.1.1 by @fontawesome - https://fontawesome.com License - https://fontawesome.com/license (Commercial License) Copyright 2022 Fonticons, Inc.--><path d="M0 383.9l64 .04c17.75 0 32-14.29 32-32.03V128.3H0v255.6zm48-63.8c8.75 0 16 7.118 16 15.99 0 8.742-7.25 15.99-16 15.99s-16-7.28-16-15.98c0-8.9 7.25-16 16-16zM348.8 64c-7.941 0-15.66 2.969-21.52 8.328L228.9 162.3c-.1.2-.1.4-.3.4-16.6 15.6-16.3 40.5-2.1 56 12.75 13.1 39.38 17.62 56.13 2.75.17-.15.27-.15.37-.25l79.88-73.1c6.5-5.871 16.75-5.496 22.62 1 6 6.496 5.5 16.62-1 22.62l-26.12 23.87L504 313.7c2.875 2.496 5.5 4.996 7.875 7.742V127.1c-40.98-40.96-96.48-63.88-154.4-63.88L348.8 64zm-14.2 153.4l-30 27.49c-29.75 27.11-75.25 24.49-101.8-4.371C176 211.2 178.1 165.7 207.3 138.9L289.1 64h-6.6c-57.8 0-113.4 23.08-154.3 63.9l-.2 223.9 18.25.037 90.5 81.82c27.5 22.37 67.75 18.12 90-9.246l18.12 15.24c15.88 12.1 39.38 10.5 52.38-5.371l31.38-38.6 5.374 4.498c13.75 11 33.88 9.002 45-4.748l9.538-11.78c11.12-13.75 9.036-33.78-4.694-44.93L334.6 217.4zm209.4-89V352c0 17.62 14.25 32.05 31.1 32.05L640 384V128.1l-96 .3zM592 352c-8.75 0-16-7.246-16-15.99 0-8.875 7.25-15.99 16-15.99s16 7.18 16 16.08c0 8.7-7.2 15.9-16 15.9z"/></svg><svg viewBox="0 0 502.664 502.664" id="icon" xmlns="http://www.w3.org/2000/svg"><path d="M153.821 358.226L0 274.337v-46.463l153.821-83.414v54.574L46.636 250.523l107.185 53.431v54.272zm26.273 29.358L282.103 115.08h32.227L212.084 387.584h-31.99zm168.749-29.358v-54.272l107.164-52.999-107.164-52.59v-53.927l153.821 83.522v46.183l-153.821 84.083z"/></svg><svg id="icon-1" viewBox="0 0 48 48" xmlns="http://www.w3.org/2000/svg"><defs><style>.icls-5{stroke:#45413c;stroke-linecap:round;stroke-linejoin:round;fill:none}.icls-6{fill:#87898c}.icls-7{fill:#bdbec0}.icls-8{fill:#00b8f0}.icls-9{fill:#4acfff}</style></defs><g id="i_Group_" data-name="&lt;Group>"><ellipse id="i_Ellipse_" data-name="&lt;Ellipse>" cx="24" cy="45.15" rx="20.34" ry="1.85"/><path id="i_Rectangle_" data-name="&lt;Rectangle>" d="M6.74 34h34.52a1.23 1.23 0 011.23 1.23v8.63a.62.62 0 01-.62.62H6.13a.62.62 0 01-.62-.62v-8.61A1.23 1.23 0 016.74 34z"/><path id="i_Rectangle_2" data-name="&lt;Rectangle>" d="M7.36 5.67h33.28v28.35H7.36z"/><path id="i_Rectangle_3" data-name="&lt;Rectangle>" d="M7.36 5.67h33.28v2.62H7.36z"/><path id="i_Rectangle_4" data-name="&lt;Rectangle>" class="icls-5" d="M7.36 5.67h33.28v28.35H7.36z"/><rect id="i_Rectangle_5" data-name="&lt;Rectangle>" class="icls-6" x="6.13" y="2.59" width="35.75" height="3.08" rx="1.23" ry="1.23"/><path id="i_Path_" data-name="&lt;Path>" class="icls-7" d="M40.64 2.59H7.36a1.23 1.23 0 00-1.23 1.23v.62a1.18 1.18 0 00.09.46 1.23 1.23 0 011.14-.77h33.28a1.23 1.23 0 011.14.77 1.18 1.18 0 00.09-.46v-.62a1.23 1.23 0 00-1.23-1.23z"/><rect id="i_Rectangle_6" data-name="&lt;Rectangle>" class="icls-5" x="6.13" y="2.59" width="35.75" height="3.08" rx="1.23" ry="1.23"/><path id="i_Rectangle_7" data-name="&lt;Rectangle>" class="icls-8" d="M19.07 36.49h9.86v8.01h-9.86z"/><path id="i_Path_2" data-name="&lt;Path>" class="icls-9" d="M21 44.5h4.74l3.19-8.01h-4.74L21 44.5z"/><path id="i_Rectangle_8" data-name="&lt;Rectangle>" class="icls-5" d="M19.07 36.49h9.86v8.01h-9.86z"/><path id="i_Rectangle_9" data-name="&lt;Rectangle>" class="icls-8" d="M10.44 37.1h3.7v4.31h-3.7z"/><path id="i_Path_3" data-name="&lt;Path>" class="icls-9" d="M11.73 41.42h2.41V37.1h-.69l-1.72 4.32z"/><path id="i_Rectangle_10" data-name="&lt;Rectangle>" class="icls-8" d="M11.06 26.63h3.7v4.31h-3.7z"/><path id="i_Path_4" data-name="&lt;Path>" class="icls-9" d="M12.34 30.94h2.41v-4.31h-.69l-1.72 4.31z"/><path id="i_Rectangle_11" data-name="&lt;Rectangle>" class="icls-8" d="M33.25 26.63h3.7v4.31h-3.7z"/><path id="i_Path_5" data-name="&lt;Path>" class="icls-9" d="M34.53 30.94h2.41v-4.31h-.69l-1.72 4.31z"/><path id="i_Rectangle_12" data-name="&lt;Rectangle>" class="icls-8" d="M25.85 26.63h3.7v4.31h-3.7z"/><path id="i_Path_6" data-name="&lt;Path>" class="icls-9" d="M27.14 30.94h2.41v-4.31h-.7l-1.71 4.31z"/><path id="i_Rectangle_13" data-name="&lt;Rectangle>" class="icls-8" d="M18.45 26.63h3.7v4.31h-3.7z"/><path id="i_Path_7" data-name="&lt;Path>" class="icls-9" d="M19.74 30.94h2.41v-4.31h-.69l-1.72 4.31z"/><path id="i_Rectangle_14" data-name="&lt;Rectangle>" class="icls-8" d="M11.06 18h3.7v4.31h-3.7z"/><path id="i_Path_8" data-name="&lt;Path>" class="icls-9" d="M12.34 22.31h2.41V18h-.69l-1.72 4.31z"/><path id="i_Rectangle_15" data-name="&lt;Rectangle>" class="icls-8" d="M33.25 18h3.7v4.31h-3.7z"/><path id="i_Path_9" data-name="&lt;Path>" class="icls-9" d="M34.53 22.31h2.41V18h-.69l-1.72 4.31z"/><path id="i_Rectangle_16" data-name="&lt;Rectangle>" class="icls-8" d="M25.85 18h3.7v4.31h-3.7z"/><path id="i_Path_10" data-name="&lt;Path>" class="icls-9" d="M27.14 22.31h2.41V18h-.7l-1.71 4.31z"/><path id="i_Rectangle_17" data-name="&lt;Rectangle>" class="icls-8" d="M18.45 18h3.7v4.31h-3.7z"/><path id="i_Path_11" data-name="&lt;Path>" class="icls-9" d="M19.74 22.31h2.41V18h-.69l-1.72 4.31z"/><path id="i_Rectangle_18" data-name="&lt;Rectangle>" class="icls-8" d="M11.06 9.37h3.7v4.31h-3.7z"/><path id="i_Path_12" data-name="&lt;Path>" class="icls-9" d="M12.34 13.68h2.41V9.37h-.69l-1.72 4.31z"/><path id="i_Rectangle_19" data-name="&lt;Rectangle>" class="icls-8" d="M33.25 9.37h3.7v4.31h-3.7z"/><path id="i_Path_13" data-name="&lt;Path>" class="icls-9" d="M34.53 13.68h2.41V9.37h-.69l-1.72 4.31z"/><path id="i_Rectangle_20" data-name="&lt;Rectangle>" class="icls-8" d="M25.85 9.37h3.7v4.31h-3.7z"/><path id="i_Path_14" data-name="&lt;Path>" class="icls-9" d="M27.14 13.68h2.41V9.37h-.7l-1.71 4.31z"/><path id="i_Rectangle_21" data-name="&lt;Rectangle>" class="icls-8" d="M18.45 9.37h3.7v4.31h-3.7z"/><path id="i_Path_15" data-name="&lt;Path>" class="icls-9" d="M19.74 13.68h2.41V9.37h-.69l-1.72 4.31z"/><path id="i_Rectangle_22" data-name="&lt;Rectangle>" class="icls-5" d="M11.06 26.63h3.7v4.31h-3.7z"/><path id="i_Rectangle_23" data-name="&lt;Rectangle>" class="icls-5" d="M33.25 26.63h3.7v4.31h-3.7z"/><path id="i_Rectangle_24" data-name="&lt;Rectangle>" class="icls-5" d="M25.85 26.63h3.7v4.31h-3.7z"/><path id="i_Rectangle_25" data-name="&lt;Rectangle>" class="icls-5" d="M18.45 26.63h3.7v4.31h-3.7z"/><path id="i_Rectangle_26" data-name="&lt;Rectangle>" class="icls-5" d="M11.06 18h3.7v4.31h-3.7z"/><path id="i_Rectangle_27" data-name="&lt;Rectangle>" class="icls-5" d="M33.25 18h3.7v4.31h-3.7z"/><path id="i_Rectangle_28" data-name="&lt;Rectangle>" class="icls-5" d="M25.85 18h3.7v4.31h-3.7z"/><path id="i_Rectangle_29" data-name="&lt;Rectangle>" class="icls-5" d="M18.45 18h3.7v4.31h-3.7z"/><path id="i_Rectangle_30" data-name="&lt;Rectangle>" class="icls-5" d="M11.06 9.37h3.7v4.31h-3.7z"/><path id="i_Rectangle_31" data-name="&lt;Rectangle>" class="icls-5" d="M33.25 9.37h3.7v4.31h-3.7z"/><path id="i_Rectangle_32" data-name="&lt;Rectangle>" class="icls-5" d="M25.85 9.37h3.7v4.31h-3.7z"/><path id="i_Rectangle_33" data-name="&lt;Rectangle>" class="icls-5" d="M18.45 9.37h3.7v4.31h-3.7z"/><path id="i_Rectangle_34" data-name="&lt;Rectangle>" class="icls-8" d="M33.86 37.1h3.7v4.31h-3.7z"/><path id="i_Path_16" data-name="&lt;Path>" class="icls-9" d="M35.17 41.42h2.42V37.1h-.7l-1.72 4.32z"/><path id="i_Rectangle_35" data-name="&lt;Rectangle>" class="icls-5" d="M10.44 37.1h3.7v4.31h-3.7z"/><path id="i_Rectangle_36" data-name="&lt;Rectangle>" class="icls-5" d="M33.86 37.1h3.7v4.31h-3.7z"/><path id="i_Path_17" data-name="&lt;Path>" class="icls-5" d="M24 36.49v8.01"/><rect id="i_Rectangle_37" data-name="&lt;Rectangle>" class="icls-6" x="17.61" y="33.41" width="12.79" height="3.08" rx="1.23" ry="1.23"/><path id="i_Path_18" data-name="&lt;Path>" class="icls-7" d="M29.16 33.41H18.84a1.23 1.23 0 00-1.23 1.23v.61a1.45 1.45 0 00.08.47 1.25 1.25 0 011.15-.72h10.32a1.23 1.23 0 011.14.77 1.23 1.23 0 00.09-.47v-.61a1.23 1.23 0 00-1.23-1.28z"/><rect id="i_Rectangle_38" data-name="&lt;Rectangle>" class="icls-5" x="17.61" y="33.41" width="12.79" height="3.08" rx="1.23" ry="1.23"/></g></svg><svg viewBox="0 0 512 512" id="icon-2" xmlns="http://www.w3.org/2000/svg"><path d="M134.303 118.483c20.383 0 36.965 16.583 36.965 36.966s-16.583 36.966-36.965 36.966c-14.612 0-27.88-8.644-33.802-22.022l-9.145 4.048c7.523 16.994 24.38 27.974 42.947 27.974 25.897 0 46.965-21.069 46.965-46.966s-21.068-46.966-46.965-46.966c-25.887 0-46.948 21.069-46.948 46.966h10c0-20.383 16.575-36.966 36.948-36.966zm46.537 251.539l6.246 7.81a85.874 85.874 0 009.321-8.67l-7.337-6.795a75.612 75.612 0 01-8.23 7.655zM48.943 311.127l10 .02c.007-3.75.296-7.522.86-11.213l-9.886-1.508a85.683 85.683 0 00-.974 12.701zm170.021-3.901a86.663 86.663 0 00-.875-8.747l-9.887 1.504a76.513 76.513 0 01.863 11.216l10-.031a86.316 86.316 0 00-.101-3.942zm-53.859 83.328a84.929 84.929 0 0011.474-5.536l-5.011-8.654a74.73 74.73 0 01-10.117 4.882l3.654 9.308zm-37.491 5.634l.739-9.973a74.856 74.856 0 01-11.108-1.67l-2.227 9.75a85.372 85.372 0 0012.596 1.893zm83.09-48.017l-9.012-4.334a75.37 75.37 0 01-5.617 9.737l8.265 5.63a85.423 85.423 0 006.364-11.033zm7.451-24.304l-9.893-1.459a74.64 74.64 0 01-2.475 10.963l9.561 2.932a84.792 84.792 0 002.807-12.436zm-77.814 72.317a85.527 85.527 0 0012.589-1.883l-2.214-9.752a75.51 75.51 0 01-11.117 1.662l.742 9.973zm-78.13-62.858a75.13 75.13 0 01-2.461-10.961l-9.894 1.454a85.086 85.086 0 002.79 12.425l9.565-2.918zm16.987-73.249l-7.303-6.832a85.716 85.716 0 00-7.982 9.919l8.235 5.672a75.922 75.922 0 017.05-8.759zm12.176 124.901a85.358 85.358 0 0011.468 5.55l3.668-9.303a75.421 75.421 0 01-10.118-4.896l-5.018 8.649zm-19.483-31.456a75.027 75.027 0 01-5.601-9.731l-9.018 4.324a85.092 85.092 0 006.351 11.032l8.268-5.625zm-19.102-67.516l9.545 2.981a75.04 75.04 0 014.148-10.444l-8.99-4.379a85.057 85.057 0 00-4.703 11.842zm136.07-25.881a75.38 75.38 0 017.043 8.759l8.24-5.666a85.65 85.65 0 00-7.979-9.923l-7.304 6.83zM80.867 377.781l6.249-7.807a75.654 75.654 0 01-8.228-7.658l-7.34 6.792a85.626 85.626 0 009.319 8.673zm134.37-91.717a84.687 84.687 0 00-4.685-11.843l-8.995 4.369a74.608 74.608 0 014.13 10.44l9.55-2.966z"/><path d="M388 434.635H23.29v-328.57h37.558c-9.889 14.354-15.688 31.733-15.688 50.444 0 23.08 19.086 56.706 39.225 85.764a85.33 85.33 0 00-3.121 2.349l6.205 7.842a75.943 75.943 0 012.689-2.017c6.699 9.314 13.323 17.964 19.215 25.398-11.839 8.162-19.062 21.693-19.062 36.223 0 24.262 19.738 44 44 44s44-19.738 44-44c0-14.535-7.224-28.068-19.066-36.229 5.832-7.357 12.38-15.903 19.008-25.106a74.324 74.324 0 012.337 1.775l6.21-7.838a84.002 84.002 0 00-2.773-2.1c20.218-29.125 39.438-62.903 39.438-86.061 0-18.71-5.8-36.089-15.69-50.444h61.893v-10h-69.892c-16.301-17.636-39.616-28.699-65.471-28.699-25.85 0-49.161 11.063-65.458 28.699H13.29v348.57H388v-10zM168.31 312.066c0 18.748-15.252 34-34 34s-34-15.252-34-34c0-11.475 5.82-22.157 15.333-28.415 1.219 1.497 2.38 2.91 3.485 4.247-7.859 5.098-12.756 13.911-12.756 23.454 0 15.404 12.532 27.937 27.937 27.937 15.408 0 27.944-12.532 27.944-27.937 0-9.548-4.902-18.364-12.77-23.46a750.792 750.792 0 003.487-4.248c9.518 6.257 15.34 16.942 15.34 28.422zm-25.331-16.421c5.676 3.137 9.275 9.153 9.275 15.708 0 9.891-8.05 17.937-17.944 17.937-9.89 0-17.937-8.046-17.937-17.937 0-6.55 3.593-12.563 9.26-15.702a413.285 413.285 0 004.926 5.693l3.743 4.229 3.744-4.229c.451-.508 2.215-2.511 4.933-5.699zm-8.676-218.28c43.649 0 79.161 35.503 79.161 79.143 0 38.584-62.987 114.912-79.161 133.873-16.176-18.964-79.143-95.275-79.143-133.873 0-43.639 35.504-79.143 79.143-79.143zm183.363 28.699H488.71v328.571h-82.27v10h92.27V96.064H317.666zm-32.511-10h17.177v10h-17.177z"/><path d="M240.259 379.377l46.362-50.809h177.343V169.226H240.259v210.151zm10-200.151h203.705v139.343H282.207l-31.948 35.014V179.226z"/><path d="M302.998 216.428h121.618v10H302.998zm-23.391 0h12.43v10h-12.43zm0 57.117h101.506v10H279.607zm124.898-28.559h20.111v10h-20.111zm-124.898 0h114.539v10H279.607z"/></svg><svg id="icon-3" data-name="Layer 1" viewBox="0 0 48 48" xmlns="http://www.w3.org/2000/svg"><defs><style>.kcls-6{fill:#3b506d}.kcls-7{fill:#c6c3d8}.kcls-8{fill:#687d94}</style></defs><path d="M48 27v13H0v-9h30V15.5a2.5 2.5 0 012.5-2.5h8.74a2.49 2.49 0 012.35 1.66l.48 1.34z"/><path d="M48 27H33V16h11.07L48 27zM0 3h30v28H0z"/><path d="M18 3v5l-1.5-1.2L15 8l-1.5-1.2L12 8V3h6zM47.5 32h.5v4h-.5a1.5 1.5 0 01-1.5-1.5v-1a1.5 1.5 0 011.5-1.5z"/><circle class="kcls-6" cx="40" cy="40" r="5"/><circle class="kcls-7" cx="40" cy="40" r="2"/><circle class="kcls-6" cx="8" cy="40" r="5"/><circle class="kcls-7" cx="8" cy="40" r="2"/><path class="kcls-8" d="M4 23h3v5H4zm4.98 0h-7l3.5-3 3.5 3z"/></svg><svg viewBox="0 0 532.745 532.745" id="icon-4" xmlns="http://www.w3.org/2000/svg"><path d="M266.373 42.377L0 211.887h532.745zm193.725-18.161h-96.863v54.388l96.863 61.653zM72.647 508.529h72.647V332.966h108.971V508.53h205.833V236.103H72.647v272.426zm242.157-175.563h96.863v96.863h-96.863v-96.863z"/></svg><svg viewBox="0 0 448 512" id="instagram-brands" xmlns="http://www.w3.org/2000/svg"><!--! Font Awesome Pro 6.1.1 by @fontawesome - https://fontawesome.com License - https://fontawesome.com/license (Commercial License) Copyright 2022 Fonticons, Inc.--><path d="M224.1 141c-63.6 0-114.9 51.3-114.9 114.9s51.3 114.9 114.9 114.9S339 319.5 339 255.9 287.7 141 224.1 141zm0 189.6c-41.1 0-74.7-33.5-74.7-74.7s33.5-74.7 74.7-74.7 74.7 33.5 74.7 74.7-33.6 74.7-74.7 74.7zm146.4-194.3c0 14.9-12 26.8-26.8 26.8-14.9 0-26.8-12-26.8-26.8s12-26.8 26.8-26.8 26.8 12 26.8 26.8zm76.1 27.2c-1.7-35.9-9.9-67.7-36.2-93.9-26.2-26.2-58-34.4-93.9-36.2-37-2.1-147.9-2.1-184.9 0-35.8 1.7-67.6 9.9-93.9 36.1s-34.4 58-36.2 93.9c-2.1 37-2.1 147.9 0 184.9 1.7 35.9 9.9 67.7 36.2 93.9s58 34.4 93.9 36.2c37 2.1 147.9 2.1 184.9 0 35.9-1.7 67.7-9.9 93.9-36.2 26.2-26.2 34.4-58 36.2-93.9 2.1-37 2.1-147.8 0-184.8zM398.8 388c-7.8 19.6-22.9 34.7-42.6 42.6-29.5 11.7-99.5 9-132.1 9s-102.7 2.6-132.1-9c-19.6-7.8-34.7-22.9-42.6-42.6-11.7-29.5-9-99.5-9-132.1s-2.6-102.7 9-132.1c7.8-19.6 22.9-34.7 42.6-42.6 29.5-11.7 99.5-9 132.1-9s102.7-2.6 132.1 9c19.6 7.8 34.7 22.9 42.6 42.6 11.7 29.5 9 99.5 9 132.1s2.7 102.7-9 132.1z"/></svg><svg viewBox="0 0 576 512" id="map-location-dot-solid" xmlns="http://www.w3.org/2000/svg"><!--! Font Awesome Pro 6.1.1 by @fontawesome - https://fontawesome.com License - https://fontawesome.com/license (Commercial License) Copyright 2022 Fonticons, Inc.--><path d="M408 120c0 54.6-73.1 151.9-105.2 191.1-7.7 10.5-21.9 10.5-29.6 0C241.1 271.9 168 174.6 168 120 168 53.73 221.7 0 288 0s120 53.73 120 120zm-120 32c22.1 0 40-17.9 40-40 0-22.09-17.9-40-40-40s-40 17.91-40 40c0 22.1 17.9 40 40 40zm137.6 27.8c.5-1.2 1-2.4 1.5-3.7l116-46.4c15.8-6.3 32.9 5.3 32.9 22.3v270.8c0 9.8-6 18.6-15.1 22.3L416 503V200.4c3.5-6.9 6.7-13.7 9.6-20.6zm-275.2 0c2.9 6.9 6.1 13.7 9.6 20.6v251.4L32.91 502.7C17.15 508.1 0 497.4 0 480.4V209.6c0-9.8 5.975-19.5 15.09-22.3l122.51-49c2.4 14.2 7.3 28.3 12.8 41.5zm177.4 151.3c13.9-16.5 35.7-44.8 56.2-76.1v249.3l-192-54.9V255c20.5 31.3 42.3 59.6 56.2 76.1 20.5 26.5 59.1 26.5 79.6 0z"/></svg><svg viewBox="0 0 512 512" id="phone-solid" xmlns="http://www.w3.org/2000/svg"><!--! Font Awesome Pro 6.1.1 by @fontawesome - https://fontawesome.com License - https://fontawesome.com/license (Commercial License) Copyright 2022 Fonticons, Inc.--><path d="M511.2 387l-23.25 100.8c-3.266 14.25-15.79 24.22-30.46 24.22C205.2 512 0 306.8 0 54.5c0-14.66 9.969-27.2 24.22-30.45L125.02.8c14.68-3.402 29.68 4.218 35.78 18.12l46.52 108.5c5.438 12.78 1.77 27.67-8.98 36.45L144.5 207.1c33.98 69.22 90.26 125.5 159.5 159.5l44.08-53.8c8.688-10.78 23.69-14.51 36.47-8.975l108.5 46.51C506.1 357.2 514.6 372.4 511.2 387z"/></svg><svg version="1.0" viewBox="0 0 1280 1276" id="shes" xmlns="http://www.w3.org/2000/svg"><path d="M597.5 1.1c-8.6.6-14.4 1.4-15.1 2.2-.6.6-3.6 9.5-6.7 19.7-3 10.2-11.9 39.6-19.7 65.5-7.8 25.8-15.6 51.6-17.3 57.1l-3 10.2-18.8 4.6c-21.3 5.2-47.5 13.5-65.8 20.8-6.8 2.7-13 4.7-13.7 4.4-.7-.3-30.1-22.1-65.3-48.5-35.3-26.5-64.4-48.1-64.9-48.1-1.1 0-25 14.5-36.2 22-20.6 13.7-42.2 29.9-60.8 45.6l-2.5 2.1 27.1 74.6c15 41.1 27.2 75.2 27.2 75.8 0 .6-4 5.6-8.8 11.2-17.5 20.2-33.7 42-45.7 61.5-3.2 5.2-6.4 9.6-7.2 9.9-.8.3-36.6-.4-79.6-1.6-43-1.2-79.4-2.1-80.8-2.1-2.3 0-3 .9-5.6 6.7-6.1 13.7-14.2 35.3-20.2 53.8C8 467.1-.4 497.9.3 498.7c.2.2 30.3 20.4 66.8 44.8 56.2 37.7 66.5 45 67 47.3.3 1.5.1 7.2-.4 12.7-.8 9.9-.2 52.5 1.1 70.2l.7 9.2-66.8 44.8C31.9 752.3 1.4 772.7.9 773c-.9.6 2.2 14.6 7.2 32 7.1 24.9 18 55.4 28.4 79.4l1.7 3.9 14.1-.6c7.8-.4 44.3-1.4 81-2.4l66.8-1.7 2.5 2.9c1.3 1.7 6.8 9.5 12 17.4 11.3 16.9 22.2 31.4 35 46.7l9.3 11.1-27.5 75.2c-15.1 41.4-27.4 75.7-27.2 76.1.5 1.4 21.3 18.5 36.1 29.6 22.5 17 60.6 41.8 63.1 41.2.7-.2 29.9-21.9 64.9-48.2l63.7-47.9 4.7 1.5c2.7.9 8.4 3 12.8 4.8 18.3 7.4 39.2 14.1 61.9 20 8.1 2.1 14.9 4 15.1 4.2.3.3 22.2 72.4 38.6 127.3 3.8 12.6 7.3 23.9 7.8 25.1.8 1.8 2.4 2.2 13.7 3.3 31.4 3 107.8 2.2 111-1.2.6-.7 3.6-9.5 6.7-19.7 3-10.2 11.9-39.6 19.7-65.5 7.8-25.9 15.6-51.6 17.3-57.1l3-10.2 18.8-4.6c21.3-5.2 47.5-13.5 65.8-20.8 6.8-2.7 13-4.7 13.7-4.4.7.3 30.1 22.1 65.3 48.5 35.3 26.5 64.4 48.1 64.9 48.1 1.1 0 25-14.5 36.2-22 20.6-13.7 42.2-29.9 60.8-45.6l2.5-2.1-27.1-74.6c-15-41.1-27.2-75.2-27.2-75.8 0-.6 4-5.6 8.8-11.2 17.5-20.2 33.7-42 45.7-61.5 3.2-5.2 6.4-9.6 7.2-9.9.8-.3 36.6.4 79.6 1.6 43 1.2 79.4 2.1 80.8 2.1 2.3 0 3-.9 5.6-6.8 6.1-13.6 14.2-35.2 20.2-53.7 6.1-18.6 14.5-49.4 13.8-50.2-.2-.2-30.3-20.4-66.8-44.8-56.2-37.7-66.5-45-67-47.3-.3-1.5-.1-7.2.4-12.7.8-9.9.2-52.7-1.1-70.2l-.7-9.2 66.8-44.8c36.8-24.6 67.3-45 67.8-45.3.9-.6-2.2-14.6-7.2-32-7.1-24.9-18-55.4-28.4-79.4l-1.7-3.9-14.1.6c-7.8.4-44.3 1.4-81 2.4l-66.8 1.7-2.5-2.9c-1.3-1.7-6.8-9.5-12-17.4-11.3-16.9-22.2-31.4-35-46.7l-9.3-11.1 27.5-75.2c15.1-41.4 27.4-75.7 27.2-76.1-.5-1.4-21.3-18.5-36.1-29.6-22.5-17-60.6-41.8-63.1-41.2-.7.2-29.9 21.9-64.9 48.2L848 188.3l-4.7-1.5c-2.7-.9-8.4-3-12.8-4.8-18.3-7.4-39.2-14.1-61.9-20-8.1-2.1-14.9-4-15.1-4.2-.3-.3-22.2-72.4-38.6-127.3-3.8-12.7-7.3-23.9-7.8-25.1-.8-1.8-2.4-2.2-13.7-3.3-16.4-1.6-77.5-2.2-95.9-1zM822.8 293c7.3 3.9 11.5 8.3 15.1 16 2.2 4.6 2.6 6.9 2.6 14 0 7.3-.4 9.3-2.8 14.2-3.2 6.5-9.5 12.5-16.5 15.9-7 3.4-19.8 3.8-27.4.9-25.9-9.7-29.4-45.6-5.8-59.8 7.6-4.5 10.2-5.2 20-4.9 7.4.3 9.3.7 14.8 3.7zM664.2 435.5c40.7 4.7 74.9 18.4 107.3 42.8 17.6 13.3 40.7 39.2 51.4 57.5 17.7 30.6 26.4 59.4 29.1 96.9 1 12.8.9 17-.5 27-4.5 33.3-15.2 61.8-33.4 89-43.7 65.4-122.5 101.2-202.3 91.8-40.7-4.7-74.9-18.4-107.3-42.8-17.6-13.3-40.7-39.2-51.4-57.5-17.7-30.6-26.4-59.4-29.1-96.9-1-12.8-.9-17 .5-27 3.3-24.1 9-43.5 19-63.9 27.4-56.3 77.2-96.3 139-111.9 24.4-6.2 52.3-8 77.7-5zm-334.8 13.4c18.2 8.9 24.6 30 14.3 47.2-6.2 10.3-17.3 16.3-30.2 16.2-19.3-.2-33.5-14.4-33.7-33.8-.3-24.8 26.8-40.9 49.6-29.6zm648.9 316.7c13.1 4.6 21.8 17.3 21.9 32.1.1 6.2-.4 8.2-3.1 13.7-3.7 7.5-9.2 12.8-17 16.4-8.1 3.8-20.2 3.8-28.2.1-7.9-3.7-13.3-9-17.1-16.7-2.9-5.8-3.3-7.7-3.3-14.3 0-6.5.5-8.5 3.3-14.2 7.9-15.9 26.3-23.2 43.5-17.1zM486.4 922.1c7.3 2.7 14.8 9.6 18.3 16.7 2.4 5 2.8 6.9 2.8 14.7 0 7.3-.4 9.9-2.3 13.6-3.4 7-8.4 12.2-15.4 16-6 3.2-6.8 3.4-16.3 3.4s-10.3-.2-16.3-3.4c-7.4-4-11.6-8.5-15-15.9-8.3-18.2.5-38.5 19.6-45.4 6.7-2.4 17.7-2.3 24.6.3z"/></svg><svg viewBox="0 0 61.999 61.988" id="warehouse_supply_cargo_distribution_logistic_icon_187269" xmlns="http://www.w3.org/2000/svg"><path d="M17 22.988h34v8H17z"/><path d="M41 28.988v2H27v-2c0-1.1.9-2 2-2h10c1.1 0 2 .9 2 2z"/><path d="M11 18.148l2.03-1.16h41.94l2.03 1.16v42.84h-6v-38H17v13c0-.55-.45-1-1-1h-5v-16.84z"/><path d="M31 42.988c-1.1 0-2 .9-2 2v-10h-4v18c-.14 0-.27.01-.41.02A19.48 19.48 0 0013 38.988h3c.55 0 1-.45 1-1v-7h34v30H25c2.21 0 4-1.79 4-4h9c1.66 0 3-1.34 3-3v-1h-4c1.1 0 2-.9 2-2v-6c0-1.1-.9-2-2-2h-6zM60.01 15.258c.95.56 1.27 1.78.72 2.74a2.015 2.015 0 01-2.74.72l-.99-.57-2.03-1.16-20.97-12-20.97 12-2.03 1.16-.99.57a2.015 2.015 0 01-2.74-.72c-.55-.96-.23-2.18.72-2.74l24.14-13.77a3.743 3.743 0 013.74 0l24.14 13.77z"/><path d="M54.97 16.988H13.03l20.97-12 20.97 12z"/><circle cx="34" cy="10.988" r="2"/><path d="M17 36.988v1c0 .55-.45 1-1 1H2c-.55 0-1-.45-1-1v-2c0-.55.45-1 1-1h14c.55 0 1 .45 1 1v1zm12 14v2h-4v-18h4v10zm2 2h10v1c0 1.66-1.34 3-3 3h-9c0-2.21-1.79-4-4-4h6zm-18 4H5c-1.1 0-2-.9-2-2v-4h8c2.21 0 4 1.79 4 4v2h-2z"/><path d="M25 52.988c2.21 0 4 1.79 4 4s-1.79 4-4 4-4-1.79-4-4c0-2.07 1.57-3.77 3.59-3.98.14-.01.27-.02.41-.02zm-20 4h8c0 2.21-1.79 4-4 4s-4-1.79-4-4zM33 42.988h4c1.1 0 2 .9 2 2v6c0 1.1-.9 2-2 2h-6c-1.1 0-2-.9-2-2v-6c0-1.1.9-2 2-2h2z"/><path d="M60.505 14.392L36.364.615a4.85 4.85 0 00-4.729 0L7.489 14.397a3.007 3.007 0 00-1.078 4.105 3.012 3.012 0 002.592 1.486c.344 0 .677-.08.997-.194v14.193H2c-1.103 0-2 .897-2 2v2c0 1.103.897 2 2 2v15c0 1.333.88 2.453 2.085 2.842.403 2.357 2.447 4.159 4.915 4.159a5.01 5.01 0 004.899-4h6.202c.465 2.279 2.484 4 4.899 4s4.434-1.721 4.899-4H38c2.206 0 4-1.794 4-4v-2h-2.184c.112-.314.184-.648.184-1v-6c0-1.654-1.346-3-3-3h-6c-.352 0-.686.072-1 .184v-8.184h-6v14.169a20.486 20.486 0 00-7.262-8.314A1.999 1.999 0 0018 37.988v-6h32v30h2v-40H16v12h-4V18.729l1.295-.741h41.413l1.294.74v43.26h2V19.794c.322.115.655.194.998.194 1.062 0 2.056-.57 2.594-1.491a3.009 3.009 0 00-1.089-4.105zM14 55.988H5a1 1 0 01-1-1v-3h7c1.654 0 3 1.346 3 3v1zm-5 4a2.996 2.996 0 01-2.816-2h5.631a2.992 2.992 0 01-2.815 2zm16 0c-1.654 0-3-1.346-3-3s1.346-3 3-3 3 1.346 3 3-1.346 3-3 3zm13-4h-8.101a4.965 4.965 0 00-.924-2H40c0 1.103-.897 2-2 2zm-7-12h1v4h2v-4h3a1 1 0 011 1v6a1 1 0 01-1 1h-6a1 1 0 01-1-1v-6c0-.551.448-1 1-1zm-3-8v16h-2v-16h2zm-4.613 16.291c-1.656.57-2.931 1.966-3.286 3.71H16v-1c0-2.757-2.243-5-5-5H4v-10h8.785a18.481 18.481 0 0110.602 12.29zM40 29.988H28v-1c0-.551.448-1 1-1h10c.552 0 1 .449 1 1v1zm10-6v6h-8v-1c0-1.654-1.346-3-3-3H29c-1.654 0-3 1.346-3 3v1h-8v-6h32zm-34 13v1H2l-.002-2H16v1zm.79-21L34.001 6.14l17.211 9.848H16.79zm43.076 1.502a1.02 1.02 0 01-1.376.358L34.001 3.836 9.504 17.853c-.46.269-1.1.097-1.365-.357a1.002 1.002 0 01.351-1.365L32.627 2.353a2.771 2.771 0 012.746-.001l24.131 13.771c.476.279.638.893.362 1.367z"/><path d="M31 10.988c0 1.654 1.346 3 3 3s3-1.346 3-3-1.346-3-3-3-3 1.346-3 3zm4 0a1.001 1.001 0 01-2 0 1.001 1.001 0 012 0z"/><circle cx="25" cy="56.988" r="1"/></svg><svg viewBox="0 0 448 512" id="whatsapp-brands" xmlns="http://www.w3.org/2000/svg"><!--! Font Awesome Pro 6.1.1 by @fontawesome - https://fontawesome.com License - https://fontawesome.com/license (Commercial License) Copyright 2022 Fonticons, Inc.--><path d="M380.9 97.1C339 55.1 283.2 32 223.9 32c-122.4 0-222 99.6-222 222 0 39.1 10.2 77.3 29.6 111L0 480l117.7-30.9c32.4 17.7 68.9 27 106.1 27h.1c122.3 0 224.1-99.6 224.1-222 0-59.3-25.2-115-67.1-157zm-157 341.6c-33.2 0-65.7-8.9-94-25.7l-6.7-4-69.8 18.3L72 359.2l-4.4-7c-18.5-29.4-28.2-63.3-28.2-98.2 0-101.7 82.8-184.5 184.6-184.5 49.3 0 95.6 19.2 130.4 54.1 34.8 34.9 56.2 81.2 56.1 130.5 0 101.8-84.9 184.6-186.6 184.6zm101.2-138.2c-5.5-2.8-32.8-16.2-37.9-18-5.1-1.9-8.8-2.8-12.5 2.8-3.7 5.6-14.3 18-17.6 21.8-3.2 3.7-6.5 4.2-12 1.4-32.6-16.3-54-29.1-75.5-66-5.7-9.8 5.7-9.1 16.3-30.3 1.8-3.7.9-6.9-.5-9.7-1.4-2.8-12.5-30.1-17.1-41.2-4.5-10.8-9.1-9.3-12.5-9.5-3.2-.2-6.9-.2-10.6-.2-3.7 0-9.7 1.4-14.8 6.9-5.1 5.6-19.4 19-19.4 46.3 0 27.3 19.9 53.7 22.6 57.4 2.8 3.7 39.1 59.7 94.8 83.8 35.2 15.2 49 16.5 66.6 13.9 10.7-1.6 32.8-13.4 37.4-26.4 4.6-13 4.6-24.1 3.2-26.4-1.3-2.5-5-3.9-10.5-6.6z"/></svg><svg viewBox="0 0 320 512" id="xmark-solid" xmlns="http://www.w3.org/2000/svg"><!--! Font Awesome Pro 6.1.1 by @fontawesome - https://fontawesome.com License - https://fontawesome.com/license (Commercial License) Copyright 2022 Fonticons, Inc.--><path d="M310.6 361.4c12.5 12.5 12.5 32.75 0 45.25-6.2 6.25-14.4 9.35-22.6 9.35s-16.38-3.125-22.62-9.375L160 301.3 54.63 406.6C48.38 412.9 40.19 416 32 416s-16.37-3.1-22.625-9.4c-12.5-12.5-12.5-32.75 0-45.25l105.4-105.4L9.375 150.6c-12.5-12.5-12.5-32.75 0-45.25s32.75-12.5 45.25 0L160 210.8l105.4-105.4c12.5-12.5 32.75-12.5 45.25 0s12.5 32.75 0 45.25l-105.4 105.4L310.6 361.4z"/></svg></svg>